# xmcd
#
# Track frame offsets: 
#        187
#        16562
#        32122
#        49627
#        65875
#        79720
#        93495
#        106170
#
# Disc length: 1648 seconds
#
# Revision: 2
# Processed by: cddbd v1.4PL0 Copyright (c) Steve Scherf et al.
# Submitted via: ExactAudioCopy v0.90b2
#
DISCID=59066e08
DTITLE=Restless Heart - Restless Heart
DYEAR=1900
DGENRE=Country
TTITLE0=Let The Heartache Ride
TTITLE1=I Want Everyone To Cry
TTITLE2=(Back To The) Heartbreak Kid
TTITLE3=Restless Heart
TTITLE4=She's Coming Home
TTITLE5=Til I Loved You
TTITLE6=Shakin' The Night Away
TTITLE7=She Danced Her Way (Into My Heart)
EXTD=
EXTT0=
EXTT1=
EXTT2=
EXTT3=
EXTT4=
EXTT5=
EXTT6=
EXTT7=
PLAYORDER=
